<svg version="1" xmlns="http://www.w3.org/2000/svg" width="341.333" height="341.333" viewBox="0 0 256.000000 256.000000"><path d="M122.4 45.3c-1.2.7-5.7 5.7-10 11.2-4.3 5.5-10.2 13-13.1 16.7L94 79.9l-12.3-4.4c-6.7-2.4-14.4-5.3-17.2-6.4C35.1 57 27.9 56.9 23 68.1c-1.9 4.5-2.2 7.1-2.3 17.3 0 7.1.5 13.7 1.2 15.8.9 2.7.9 4.3.2 5.7-3.1 5.6-.3 23.8 5.2 34.7 2.6 5.1 12.9 15.4 15.4 15.4.7 0 1.3.9 1.3 2 0 2 1.7 6.3 4.3 10.6 3.6 6.1 17.9 17.4 22 17.4 1 0 1.6 1.7 1.9 5.6.4 4.7 1 6.1 4.1 9.1 3 3.1 4.2 3.6 8.1 3.6 2.5 0 5.1-.4 5.8-1 .7-.6 9.7-3.5 20.1-6.4l18.7-5.3 17.3 4.9c9.4 2.6 19.1 5.6 21.5 6.7 5.6 2.5 10 1.6 14.2-2.7 2.6-2.7 3.4-4.5 3.8-8.5.3-3.6 1-5.3 2.1-5.7 5.7-1.7 9.8-4.3 15.3-9.5 3.4-3.3 6.8-7 7.5-8.2 2.6-4.4 4.3-8.6 4.3-10.6 0-1.1.6-2 1.3-2 2.5 0 12.8-10.3 15.4-15.4 5.5-10.9 8.3-29.1 5.2-34.7-.7-1.4-.7-3 .2-5.7.7-2.1 1.2-8.7 1.2-15.8-.1-10.2-.4-12.8-2.3-17.3-4.9-11.2-12.1-11.1-41.5 1-11.1 4.6-29.8 10.9-30.6 10.3-.5-.3-6.6-7.8-13.5-16.7-6.9-8.9-13.6-16.7-14.8-17.4-1.1-.7-4.1-1.2-6.6-1.2s-5.5.5-6.6 1.2zM143.1 73c7.8 10 15 18.5 16 19.1 1 .5 9.9 3.8 19.6 7.3 9.8 3.6 19 6.9 20.5 7.5l2.7 1-13.1 19.2-13.1 19.2-.9 23c-.4 12.7-.9 23.2-1.1 23.3-.1.1-10.3-2.7-22.7-6.2l-22.5-6.4-22.2 6.4-22.3 6.3-.1-3.1c0-1.7-.4-12.1-.8-23.2l-.8-20.1L69.1 127c-7.2-10.6-13-19.4-12.9-19.5.2-.1 10.1-3.7 22.1-8l21.8-7.8 14.2-18.3c7.8-10.1 14.3-18.3 14.4-18.3.1-.1 6.6 8 14.4 17.9zm-87.5 4.1c11 3.9 20.1 7.2 20.3 7.4.2.2-1.2 2.6-3.2 5.2-3.2 4.3-4.4 5.1-12.2 7.8-9.9 3.4-11.7 5-11.8 10.2 0 3.1 1.2 5.5 6.1 12.7 4.8 6.9 6.2 9.8 6.2 12.6 0 7.9 4.3 20.2 10.4 29.3 2.8 4.3 3.6 6.4 3.6 10.1 0 2.5-.4 4.6-.8 4.6-1.8 0-9.9-5.9-13.4-9.8-3-3.3-6.8-9.9-6.8-11.7 0-.2 1.4-.6 3.1-1 3.1-.7 3-.7-3.8-4.1-12.7-6.1-20-16.8-21-31.1l-.6-7.6 5.8.7 5.8.7-4.2-4.6c-7-7.6-9.9-17.1-8.2-27.1C32 74.5 33.6 70 34.8 70c.5 0 9.9 3.2 20.8 7.1zm171.1-2.6c2.1 5.9 2.1 17 0 23.2-1.1 3-3.8 7.4-6.4 10.3l-4.5 5 5.7-.6 5.8-.7-.6 7.6c-1 14.3-8.3 25-21 31.1-6.8 3.4-6.9 3.4-3.8 4.1 1.7.4 3.1.8 3.1 1 0 1.8-3.8 8.4-6.8 11.7-3.9 4.3-11.6 9.8-13.9 9.8-.9 0-1.3-1.5-1.3-4.6 0-3.7.8-5.8 3.6-10.1 6.1-9.1 10.4-21.4 10.4-29.3 0-2.8 1.4-5.7 6.2-12.6 6.6-9.5 7.8-14.5 4.5-18.2-.9-.9-5.5-3-10.2-4.7-7.9-2.7-9-3.4-12.2-7.8-2-2.6-3.4-4.9-3.2-5.1.2-.2 3.5-1.3 7.2-2.6 3.8-1.2 12.8-4.4 20-7.1 7.3-2.6 13.8-4.7 14.6-4.6.8.1 2 2 2.8 4.2z"/><path d="M123.1 108.1c-7.6 1.4-15.2 7.9-18.1 15.4-1.9 5-1.5 13.9 1 18.9 4.2 8.7 12.4 13.8 22.2 13.8 13.6 0 24-10.5 24-24.2 0-15.6-13.6-26.7-29.1-23.9z"/></svg>