<?xml version="1.0" ?><svg height="200" id="svg2" version="1.1" width="200" xmlns="http://www.w3.org/2000/svg" xmlns:cc="http://creativecommons.org/ns#" xmlns:dc="http://purl.org/dc/elements/1.1/" xmlns:inkscape="http://www.inkscape.org/namespaces/inkscape" xmlns:rdf="http://www.w3.org/1999/02/22-rdf-syntax-ns#" xmlns:sodipodi="http://sodipodi.sourceforge.net/DTD/sodipodi-0.dtd" xmlns:svg="http://www.w3.org/2000/svg"><defs id="defs4"/><g id="layer1" style="display:inline" transform="translate(0,-852.36218)"><path d="m 100,10 c -49.705627,0 -90,40.294373 -90,90 0,49.70563 40.294373,90 90,90 1.96568,0 3.87817,-0.18838 5.8125,-0.3125 6.56774,-0.42145 12.93133,-1.60811 19.03125,-3.375 5.67307,-1.64325 11.11833,-3.78198 16.28125,-6.4375 24.86147,-12.78734 42.92154,-36.76697 47.59375,-65.3125 C 189.49546,109.81711 190,104.96886 190,100 c 0,-3.650216 -0.29637,-7.213524 -0.71875,-10.75 -0.0857,-0.717749 -0.24127,-1.412524 -0.34375,-2.125 C 182.66932,43.544928 145.31458,10 100,10 z" id="path5742" style="fill:#41af3d;fill-opacity:1;stroke:none" transform="translate(0,852.36218)"/></g><g id="layer3" style="display:inline"/><g id="layer4" style="display:inline"><path d="M 98.6875 10.09375 C 59.471926 10.678953 23.778638 37.052587 13.125 76.8125 C 0.26023967 124.82445 28.76932 174.16665 76.78125 187.03125 C 78.67995 187.54005 80.56825 187.8693 82.46875 188.25 C 88.338036 189.42576 94.20854 189.91782 100 189.90625 L 100 10.09375 C 99.561451 10.093839 99.125197 10.087218 98.6875 10.09375 z " id="rect2989" style="fill:#ffffff;fill-opacity:1;fill-rule:nonzero;stroke:none;opacity:0.15"/><rect height="1.2962025" id="rect3759" style="opacity:0.1;fill:#ffffff;fill-opacity:1;fill-rule:nonzero;stroke:none" width="1.9443038" x="-113.41772" y="68.759491"/><path d="m 132.87716,114.91699 c -4.88431,0 -9.27752,2.05482 -12.39674,5.33432 L 84.03403,102.40722 c 0.12534,-0.83837 0.21164,-1.68701 0.21164,-2.560307 0,-0.850697 -0.0822,-1.680846 -0.20137,-2.496611 l 36.39297,-17.648871 c 3.12127,3.306209 7.53503,5.38158 12.43989,5.38158 9.4563,0 17.12284,-7.666543 17.12284,-17.122837 0,-9.458349 -7.66654,-17.122831 -17.12284,-17.122831 -9.45629,0 -17.12283,7.664482 -17.12283,17.122831 0,0.850696 0.0822,1.67879 0.20137,2.496609 L 79.56273,88.105656 C 76.44146,84.799447 72.02975,82.724076 67.12284,82.724076 57.66449,82.724076 50,90.390619 50,99.846913 c 0,9.458347 7.66449,17.122837 17.12284,17.122837 4.88431,0 9.27752,-2.05482 12.39674,-5.33432 l 36.44639,17.84408 c -0.12534,0.83632 -0.21164,1.68701 -0.21164,2.56031 0,9.45835 7.66654,17.12284 17.12283,17.12284 9.4563,0 17.12284,-7.66449 17.12284,-17.12284 0,-9.45835 -7.66654,-17.12283 -17.12284,-17.12283 z" id="path3" style="fill:#ececec"/></g></svg>